<?xml version="1.0" encoding="UTF-8" standalone="no"?>
<svg
   xmlns:dc="http://purl.org/dc/elements/1.1/"
   xmlns:cc="http://creativecommons.org/ns#"
   xmlns:rdf="http://www.w3.org/1999/02/22-rdf-syntax-ns#"
   xmlns:svg="http://www.w3.org/2000/svg"
   xmlns="http://www.w3.org/2000/svg"
   xmlns:sodipodi="http://sodipodi.sourceforge.net/DTD/sodipodi-0.dtd"
   xmlns:inkscape="http://www.inkscape.org/namespaces/inkscape"
   width="44.800243"
   height="37.67326"
   version="1.1"
   id="svg1478"
   sodipodi:docname="logo.svg"
   inkscape:version="0.92.3 (2405546, 2018-03-11)">
  <metadata
     id="metadata1484">
    <rdf:RDF>
      <cc:Work
         rdf:about="">
        <dc:format>image/svg+xml</dc:format>
        <dc:type
           rdf:resource="http://purl.org/dc/dcmitype/StillImage" />
      </cc:Work>
    </rdf:RDF>
  </metadata>
  <defs
     id="defs1482" />
  <sodipodi:namedview
     pagecolor="#ffffff"
     bordercolor="#666666"
     borderopacity="1"
     objecttolerance="10"
     gridtolerance="10"
     guidetolerance="10"
     inkscape:pageopacity="0"
     inkscape:pageshadow="2"
     inkscape:window-width="1366"
     inkscape:window-height="745"
     id="namedview1480"
     showgrid="false"
     inkscape:zoom="3.7583333"
     inkscape:cx="119.99068"
     inkscape:cy="19.052255"
     inkscape:window-x="-8"
     inkscape:window-y="-8"
     inkscape:window-maximized="1"
     inkscape:current-layer="g1476" />
  <g
     id="g1476"
     style="fill:none;fill-rule:nonzero"
     transform="translate(-0.00931594,-0.87899312)">
    <path
       d="M 27.967,0.879 C 20.242,0.875 12.182,2.615 4.047,4.872 3.014,5.08 2.006,5.756 1.473,6.592 0.983,7.38 0.805,8.171 0.652,9 c -0.79,4.428 -0.694,8.776 -0.53,13.594 0.036,1.103 0.2,2.41 0.715,3.205 0.538,0.803 1.46,1.313 2.561,1.48 a 95.99,95.99 0 0 0 4.232,0.525 l -0.312,8.698 c -0.048,0.692 0.29,1.267 0.71,1.598 0.376,0.286 0.795,0.413 1.225,0.445 0.86,0.065 1.869,-0.303 2.37,-1.257 2.195,-4.224 3.572,-6.089 6.317,-8.895 7.158,0.176 13.407,-0.222 20.482,-0.745 2.501,-0.065 4.218,-2.11 4.672,-3.743 1.357,-4.232 1.568,-9.456 1.712,-14.737 C 44.867,7.075 44.141,5.02 42.856,3.934 41.634,2.943 40.154,2.584 38.798,2.216 35.031,1.363 31.263,0.905 27.967,0.879 Z m 10.29,3.31 c 1.358,0.369 2.555,0.724 3.31,1.337 1.26,1.339 1.218,2.23 1.2,3.675 -0.142,5.122 -0.388,10.093 -1.544,13.86 -0.498,1.405 -1.366,2.405 -3.006,2.556 -7.208,0.533 -13.462,0.945 -20.707,0.739 a 1.032,1.032 0 0 0 -0.763,0.302 c -3.044,3.074 -4.601,5.21 -6.921,9.676 C 9.772,36.436 9.655,36.498 9.511,36.509 9.414,36.504 9.375,36.429 9.369,36.361 L 9.683,26.929 C 9.702,26.42 9.282,25.934 8.776,25.879 a 95.48,95.48 0 0 1 -5.06,-0.62 C 2.99,25.148 2.722,24.949 2.523,24.653 2.177,23.828 2.185,23.318 2.158,22.525 1.996,17.75 1.916,13.577 2.649,9.425 2.717,8.811 2.947,8.183 3.191,7.658 3.595,7.026 4.214,6.933 4.835,6.761 c 7.956,-2.197 15.74,-3.84 23.068,-3.845 3.592,0.13 7.364,0.49 10.354,1.273 z m -27.479,8.09 c -1.096,1.313 -0.987,3.096 -0.14,4.29 0.442,0.625 1.132,1.128 1.972,1.242 1.091,0.09 1.783,-0.352 2.53,-0.86 1.353,-1.176 1.49,-3.228 0.461,-4.71 -0.524,-0.755 -1.362,-1.208 -2.218,-1.24 -1.172,0.012 -1.968,0.535 -2.605,1.277 z m 11.856,-1.072 c -1.092,0.035 -1.975,0.791 -2.514,1.607 -0.617,0.933 -0.977,2.101 -0.478,3.246 0.96,2.203 4.277,2.176 5.6,-0.063 0.61,-1.032 0.454,-2.205 0,-3.056 -0.452,-0.85 -1.136,-1.543 -2.131,-1.702 a 2.494,2.494 0 0 0 -0.477,-0.032 z m 9.625,0.207 c -0.34,-0.008 -0.69,0.024 -1.018,0.111 -1.312,0.35 -2.429,1.704 -2.26,3.437 0.086,0.872 0.487,1.722 1.21,2.308 0.723,0.585 1.773,0.847 2.88,0.62 1.272,-0.26 2.06,-1.285 2.323,-2.275 0.263,-0.99 0.197,-1.999 -0.414,-2.817 a 3.47,3.47 0 0 0 -2.72,-1.384 z m -18.965,1.623 c 0.245,0.002 0.438,0.08 0.637,0.366 0.445,0.642 0.321,1.615 -0.128,2.005 -0.447,0.39 -0.726,0.424 -0.922,0.398 -0.196,-0.027 -0.395,-0.162 -0.573,-0.414 -0.34,-0.48 -0.44,-1.256 0.007,-1.81 0.238,-0.316 0.675,-0.513 0.98,-0.545 z m 9.483,0.223 c 0.038,0.006 0.464,0.253 0.668,0.636 0.204,0.383 0.242,0.739 0.048,1.066 -0.577,0.976 -1.804,0.712 -1.99,0.287 -0.07,-0.162 -0.017,-0.813 0.32,-1.32 0.335,-0.509 0.757,-0.7 0.954,-0.67 z m 10.564,0.748 c 0.062,0.083 0.213,0.64 0.096,1.082 -0.118,0.442 -0.31,0.715 -0.78,0.811 -0.602,0.124 -0.94,0 -1.193,-0.207 -0.254,-0.205 -0.425,-0.552 -0.462,-0.923 -0.09,-0.92 0.24,-1.133 0.764,-1.273 0.61,-0.15 1.3,0.112 1.575,0.51 z"
       id="path1472"
       inkscape:connector-curvature="0"
       style="fill:#ff52c1" />
  </g>
</svg>
